<?xml version="1.0" encoding="UTF-8"?>
<svg id="Calque_1" data-name="Calque 1" xmlns="http://www.w3.org/2000/svg" viewBox="0 0 1137.13 654.18">
  <defs>
    <style>
      .cls-1 {
        fill: #fff;
      }
    </style>
  </defs>
  <g>
    <path class="cls-1" d="M75.63,406.74l986.57-.17c74.74,5.31,80.84,112.56,67.95,167.69-9.13,39.03-22.7,69.15-66.83,74.17-329.5,1.62-659.37,1.84-988.85-.11C.07,642.42-6.7,529.57,8.12,475.22c10.06-36.9,25.68-64.78,67.51-68.49ZM555.84,492.43c-1.58-1.55,4.3-25.05,2.83-29.32-1.18-3.44-11.05-3.14-14.13-2.46-10.49,2.35-5.87,22.35-8.61,30.18l-11.97,2.75c-.6,4.46-.53,8.91,3.34,11.89,3.5,2.7,6.39.86,7.31,6.74-1.13,20.12-3.92,56.65,17.54,67.42,12.89,6.47,20.19,3.26,20.61-11.55-.7-2.11-4.51-1.48-6.66-2.4-19.27-8.24-15.06-40.54-11.17-57.14l12.69-1.31c4.35-10.65-1.52-15.07-11.77-14.8ZM315.85,533.44c5.68,1.85,8.54,5.71,15.14,5.42,26.12-1.16,31.34-52.59,10.17-64.24-10.15-5.59-14.4,1.11-22.83,5.8-3.04-2.19-.37-5.49-.39-8.49-.06-9.32-16.54-10.65-18.04-.92-.49,3.16.27,6.71-.07,9.93-2.66,25.21-6.36,54.6-3.86,79.88.74,7.5,2.81,14.51,12.15,12.43,6.78-1.51,7.51-8.23,7.75-14.25.34-8.5-2.81-17.1-.02-25.54ZM512.55,483.14c1.25-1.03,3.83-7.71,4.08-9.47,1.95-13.94-21.3-9.81-16.59,6.06,1.26,4.25,9.03,6.27,12.51,3.41ZM589.54,465.66c-8.54,1.96-10.07,20.36,2.7,18.75,7.9-1,13.36-22.45-2.7-18.75ZM831.55,483.14c1.25-1.03,3.83-7.71,4.08-9.47,1.94-13.85-21.35-9.89-16.35,5.82,1.48,4.66,8.58,6.68,12.27,3.65ZM264.83,550.44c.99,1.07-1.87,14.94-1.82,17.52.18,9.67,14.23,10.57,16.59-.26,1.88-8.62,2.79-26.39,3.23-35.77,1.04-22.45-1.85-68.14-33.48-65.48-5.09.43-26.16,7.81-28.59,11.71-.87,1.4-.29,3.21.13,4.66,4.35,15.23,14.2,3.51,23.91,2.07,12.26-1.82,19.17,6.28,21.05,17.54-4.02-.82-7.11-3.05-11.24-4.25-27.17-7.93-42.48,26.02-25.27,46.27,10.29,12.11,21.75,8.7,35.5,5.99ZM892.49,471.78c-12.7-11.92-35-1.48-47.44,5.85-1.44,4.84,1.92,8.69,3.99,12.58,7.57,1.48,12.97-4.58,20.55-5.52,11.68-1.45,18.05,6.67,20.26,17.22-3.5.62-7.28-2.86-11.04-3.96-26.65-7.75-42.36,25.77-25.95,45.95,9.91,12.18,22.28,9.82,35.97,6.53,1.29,6.43-4.87,19.01,1.01,23.49,2.59,1.97,8.2,2.29,10.71.22,3.34-2.75,4.83-20.12,5.27-25.22,1.8-20.88,3.23-61.59-13.34-77.14ZM671.66,469.6l-16.86-.71c-1.54,1.02-2.67,10.53-2.95,13.05-1.59,14.19-.07,29.87-2.12,43.88-.5,3.44-3.77,21.72-9.79,13.99-4.46-5.73-7.07-27.05-8.1-34.9-.9-6.94.66-25.3-5.99-28.01-7.17-2.92-18.14-1.79-18.1,8.02.08,19.41,6.52,60.46,17.85,76.23,10.12,14.08,28.03,12.11,34.7-3.76,4.39-10.44,7.73-26.32,9.39-37.61.99-6.75,5.46-47.93,1.97-50.19ZM453.84,478.44c.6-6.52-3.97-8.25-9.61-8.89-8.69-.97-11.52.88-13.16,9.62-3.33,17.78-3.28,49.39-2.28,67.8.19,3.53,2.55,25.99,4.7,26.52,3.39.49,14.23-2.7,15.15-5.75,1.11-11.66-1.6-23.19-.85-34.85.68-10.55,7.44-38.84,19.03-42.02,10.74-2.95,3.84,15.35,11.57,16.57,4.39.69,10.61-1.78,11.39-6.57,2.59-15.86-2.11-32.47-21.38-29.38-5.1.82-9.38,6.13-14.55,6.94ZM773.84,478.44c.6-6.52-3.97-8.25-9.61-8.89-9.53-1.07-11.38,1.51-13.14,10.64-1.4,7.24-1.98,19.1-2.3,26.7-.38,9.17-.64,61.42,4.44,65.64,2.78,2.32,14.42-1.49,15.41-4.8,1.27-4.25.21-20.09.24-25.85.03-5.86-.99-11.42.03-17.88,1.37-8.71,8.54-30.56,17.91-33.14,10.43-2.87,4.38,14.45,10.72,16.39,4.13.64,10.99-.79,12.08-5.54,1.96-8.54.98-23.22-7.43-28.14-10.84-6.33-18.83.75-28.35,4.85ZM372.18,555.09c9.16,9.87,23.03,11.33,35.03,6.22,7.29-3.1,11.92-5.24,8.12-13.87-3.13-7.1-7.6-2.94-12.99-2.93-5.66.02-14.21-4.7-13.03-11.05,9.56-7.33,19.59-4.86,25.01-18.06,6.55-15.94,3.45-37.25-14.48-43.47-17.33-6.02-30.46,10.66-34.29,25.7-3.59,14.07-3.7,46.31,6.64,57.45ZM710.63,470.65c-30.34,2.99-33.12,62.06-20.25,81.75,4.96,7.59,18.08,13.12,26.99,12.07,5.34-.63,19.9-5.88,19.27-12.23-1.27-12.87-7.78-7.39-15.27-7.75-5.81-.27-12.71-4.81-11.38-11.34.98-3.3,10.51-4.62,13.84-6.21,13.97-6.68,16.59-29.59,10.52-42.51-3.8-8.08-14.72-14.66-23.72-13.78ZM496.09,572.19c2.17,2.37,13.28,3.08,16.12,2.12,3.68-1.25,2.39-19.34,2.59-23.41.67-13.65,2.24-28.19,1.02-41.94-.58-6.51-1.26-10.06-8.63-10.45-8.49-.45-10.51,5.27-11.25,12.54-.84,8.3.34,17.51-.06,25.94-.36,7.58-4.93,29.57.21,35.21ZM588.62,498.65c-12.97,1.07-8.21,21.86-8.75,31.33-.5,8.85-4.67,34.89-.48,41.4,2.36,3.67,11.07,3.81,14.95,3.07,5.22-1,3.19-15.04,3.45-19.55.83-14.44,2.44-32.6,1.03-46.94-.67-6.81-2.73-9.92-10.2-9.3ZM815.09,572.19c2.17,2.37,13.28,3.08,16.12,2.12,3.68-1.25,2.39-19.34,2.59-23.41.67-13.65,2.24-28.19,1.02-41.94-.58-6.51-1.26-10.06-8.63-10.45-8.49-.45-10.51,5.27-11.25,12.54-.84,8.3.34,17.51-.06,25.94-.36,7.58-4.93,29.57.21,35.21Z"/>
    <path class="cls-1" d="M516.83,213.44v-40s58,0,58,0v129.1c0,18.26,3.09,38.62-7.24,54.68-.57.88-1.16,1.74-1.78,2.59-17.38,23.65-49.93,31.52-77.61,25.35-22.77-5.07-49.42-24.07-49.42-50.17,0,0,0-279.19,0-283.04,0-33.78,40.04-51.38,68.39-51.36,36.59.03,69.68,24.62,68.08,63.03-1.23,29.64-.43,59.59-.43,89.33l-1.5,1.5h-48l-1.5-1.5V49.94c0-.44-1.54-4.29-1.95-5.05-6.45-11.72-30.68-9.56-32.04,5.05l.06,288.93c4.14,15.7,30.98,14.96,33.7-1.18l.24-121.76c.33-3.87-7-2.09-7-2.5Z"/>
    <path class="cls-1" d="M407.83,380.44h-51l-5.01-36.99-38.85.13-5.31,35.2-1.34,1.66h-49.5L306.83,5.43l50.07.44,50.93,374.57ZM345.83,302.44l-13.5-150.01-13.5,150.01h27Z"/>
    <polygon class="cls-1" points="237.83 5.44 237.83 45.44 205.33 45.44 203.83 46.94 203.83 380.44 153.83 380.44 153.83 45.44 120.83 45.44 120.83 5.44 237.83 5.44"/>
    <polygon class="cls-1" points="678.83 5.44 678.83 338.94 680.33 340.44 728.83 340.44 728.83 380.44 627.83 380.44 627.83 5.44 678.83 5.44"/>
    <rect class="cls-1" x="762.83" y="5.44" width="50" height="375"/>
    <path class="cls-1" d="M871.56,511.63c19.44-4.32,11.15,39.25-3.77,25.34-5.87-5.47-3.32-23.77,3.77-25.34Z"/>
    <path class="cls-1" d="M247.56,511.63c16.3-3.62,12.64,26.35,3.72,27.81-15.2,2.5-12.69-25.82-3.72-27.81Z"/>
    <path class="cls-1" d="M332.55,488.58c9.72-2.68,12.11,25.8,1.64,31.72-.89.51-1.8,1.14-2.88,1.12-10.98-3.04-6.71-30.64,1.24-32.84Z"/>
    <path class="cls-1" d="M705.95,512.32c-4.36-8.55,14.07-31.85,18.43-17.94,3.44,10.96-7.5,21.71-18.43,17.94Z"/>
    <path class="cls-1" d="M385.95,512.32c-.9-7.42,2.74-19.26,10.86-21.43,10.79-2.88,8.91,12.04,4.49,17.5-3.11,3.84-10.7,5.8-15.34,3.92Z"/>
  </g>
  <path class="cls-1" d="M1007.87,57.89c-1.06-17.45-4.16-26.04-16.62-37.88-22.5-21.36-59.13-25.81-86.81-12.48-41.56,20.02-33.34,63.62-33.36,102.24-.01,24.34-.03,48.67-.04,73-.03,51.34-.05,102.68-.08,154.02,14.82,69.87,132.79,66.5,136.93-8.83V57.89ZM955.53,334.43c0,8.13-6.65,14.78-14.78,14.78h-3.79c-8.13,0-14.78-6.65-14.78-14.78V51.43c0-8.13,6.65-14.78,14.78-14.78h3.79c8.13,0,14.78,6.65,14.78,14.78v283Z"/>
</svg>