<svg width="246" height="109" viewBox="0 0 246 109" fill="none" xmlns="http://www.w3.org/2000/svg">
<rect x="2" y="12" width="242" height="86" stroke="#F5F3EF" stroke-width="4"/>
<path d="M20.36 38.2H53.36L54.62 44.32H40.64V79H32.78V44.32H20.36V38.2ZM74.3019 48.88L68.9619 63.1H79.7619L74.3019 48.88ZM77.7819 38.2L93.6219 77.92L85.8219 79L82.1619 69.4H66.6819L63.0819 79H55.2819L71.1819 38.2H77.7819ZM114.344 56.68H129.224V76.84C127.664 77.68 125.784 78.4 123.584 79C121.384 79.56 119.024 79.84 116.504 79.84C110.144 79.84 105.364 77.8 102.164 73.72C99.0039 69.6 97.4239 64.62 97.4239 58.78C97.4239 52.58 99.2239 47.46 102.824 43.42C106.424 39.38 111.304 37.36 117.464 37.36C118.664 37.36 120.364 37.56 122.564 37.96C124.804 38.36 126.824 39.04 128.624 40L126.164 45.58C124.404 45.06 122.964 44.66 121.844 44.38C120.764 44.06 119.344 43.9 117.584 43.9C113.984 43.9 111.064 45.14 108.824 47.62C106.624 50.06 105.524 53.76 105.524 58.72C105.524 63.2 106.424 66.76 108.224 69.4C110.064 72 112.764 73.3 116.324 73.3C117.644 73.3 118.784 73.24 119.744 73.12C120.704 72.96 121.544 72.8 122.264 72.64V62.68H113.684L114.344 56.68ZM165.359 79H138.419V38.2H146.159V72.94H164.159L165.359 79ZM178.737 38.2V79H170.997V38.2H178.737ZM187.19 58.78C187.19 52.5 188.83 47.38 192.11 43.42C195.39 39.42 200.01 37.36 205.97 37.24C212.37 37.24 217.11 39.3 220.19 43.42C223.27 47.54 224.81 52.52 224.81 58.36C224.81 64.68 223.15 69.84 219.83 73.84C216.55 77.84 211.93 79.84 205.97 79.84C199.61 79.84 194.89 77.8 191.81 73.72C188.73 69.6 187.19 64.62 187.19 58.78ZM195.29 58.72C195.29 63 196.15 66.5 197.87 69.22C199.59 71.94 202.27 73.3 205.91 73.3C209.19 73.3 211.81 72.08 213.77 69.64C215.73 67.2 216.71 63.44 216.71 58.36C216.71 54.12 215.85 50.64 214.13 47.92C212.41 45.2 209.73 43.84 206.09 43.84C202.89 43.84 200.29 45.18 198.29 47.86C196.29 50.54 195.29 54.16 195.29 58.72Z" fill="#F5F3EF"/>
</svg>
